<mxfile host="65bd71144e">
    <diagram id="OGac3-sLcPVTQerUiATl" name="ページ1">
        <mxGraphModel dx="1321" dy="1119" grid="1" gridSize="5" guides="1" tooltips="1" connect="1" arrows="1" fold="1" page="1" pageScale="1" pageWidth="1200" pageHeight="900" background="#FFFFFF" math="0" shadow="0">
            <root>
                <mxCell id="0"/>
                <mxCell id="1" parent="0"/>
                <mxCell id="27" value="アーキテクチャ" style="rounded=0;whiteSpace=wrap;html=1;" parent="1" vertex="1">
                    <mxGeometry x="20" y="20" width="120" height="40" as="geometry"/>
                </mxCell>
                <mxCell id="28" value="フロントエンド" style="rounded=0;whiteSpace=wrap;html=1;opacity=50;fillColor=#dae8fc;strokeColor=#6c8ebf;align=left;verticalAlign=top;spacing=10;" parent="1" vertex="1">
                    <mxGeometry x="80" y="660" width="740" height="200" as="geometry"/>
                </mxCell>
                <mxCell id="29" value="個別API" style="rounded=0;whiteSpace=wrap;html=1;opacity=50;fillColor=#dae8fc;strokeColor=#6c8ebf;align=left;verticalAlign=top;spacing=10;" parent="1" vertex="1">
                    <mxGeometry x="40" y="240" width="540" height="340" as="geometry"/>
                </mxCell>
                <mxCell id="30" value="共通API" style="rounded=0;whiteSpace=wrap;html=1;opacity=50;fillColor=#dae8fc;strokeColor=#6c8ebf;align=left;verticalAlign=top;spacing=10;" parent="1" vertex="1">
                    <mxGeometry x="640" y="80" width="520" height="500" as="geometry"/>
                </mxCell>
                <mxCell id="32" value="2025/05/01" style="rounded=0;whiteSpace=wrap;html=1;" parent="1" vertex="1">
                    <mxGeometry x="1060" y="20" width="120" height="40" as="geometry"/>
                </mxCell>
                <mxCell id="33" value="データベース" style="rounded=0;whiteSpace=wrap;html=1;opacity=50;fillColor=#dae8fc;strokeColor=#6c8ebf;align=left;verticalAlign=top;spacing=10;" parent="1" vertex="1">
                    <mxGeometry x="40" y="80" width="540" height="140" as="geometry"/>
                </mxCell>
                <mxCell id="42" value="Windows" style="rounded=0;whiteSpace=wrap;html=1;align=left;verticalAlign=top;spacing=10;fillColor=#f5f5f5;strokeColor=#666666;fontColor=#333333;opacity=50;" parent="1" vertex="1">
                    <mxGeometry x="130" y="712.5" width="150" height="115" as="geometry"/>
                </mxCell>
                <mxCell id="44" value="Web" style="rounded=0;whiteSpace=wrap;html=1;align=left;verticalAlign=top;spacing=10;fillColor=#f5f5f5;fontColor=#333333;strokeColor=#666666;opacity=50;" parent="1" vertex="1">
                    <mxGeometry x="320" y="712.5" width="220" height="117.5" as="geometry"/>
                </mxCell>
                <mxCell id="45" value="IOS / Android" style="rounded=0;whiteSpace=wrap;html=1;align=left;verticalAlign=top;spacing=10;fillColor=#f5f5f5;fontColor=#333333;strokeColor=#666666;opacity=50;" parent="1" vertex="1">
                    <mxGeometry x="580" y="713.75" width="200" height="115" as="geometry"/>
                </mxCell>
                <mxCell id="39" value="C#" style="shape=image;verticalLabelPosition=bottom;verticalAlign=top;imageAspect=0;image=https://upload.wikimedia.org/wikipedia/commons/1/17/C_Sharp_Icon.png;" parent="1" vertex="1">
                    <mxGeometry x="175" y="750" width="40" height="40" as="geometry"/>
                </mxCell>
                <mxCell id="40" value="React" style="shape=image;verticalLabelPosition=bottom;verticalAlign=top;imageAspect=0;image=https://upload.wikimedia.org/wikipedia/commons/a/a7/React-icon.svg;" parent="1" vertex="1">
                    <mxGeometry x="370" y="750" width="39" height="40" as="geometry"/>
                </mxCell>
                <mxCell id="38" value="Blazor" style="shape=image;verticalLabelPosition=bottom;verticalAlign=top;imageAspect=0;image=https://upload.wikimedia.org/wikipedia/commons/d/d0/Blazor.png;" parent="1" vertex="1">
                    <mxGeometry x="450" y="750" width="40" height="40" as="geometry"/>
                </mxCell>
                <mxCell id="41" value="Swift" style="shape=image;verticalLabelPosition=bottom;verticalAlign=top;imageAspect=0;image=https://img.icons8.com/?size=100&amp;id=24465&amp;format=png&amp;color=000000;" parent="1" vertex="1">
                    <mxGeometry x="630" y="750" width="40" height="40" as="geometry"/>
                </mxCell>
                <mxCell id="37" value="Flutter" style="shape=image;verticalLabelPosition=bottom;verticalAlign=top;imageAspect=0;image=https://cdn.iconscout.com/icon/free/png-512/free-flutter-logo-icon-download-in-svg-png-gif-file-formats--programming-language-coding-development-logos-icons-1720090.png?f=webp&amp;w=256;" parent="1" vertex="1">
                    <mxGeometry x="710" y="750" width="40" height="40" as="geometry"/>
                </mxCell>
                <mxCell id="46" value="ゲートウェイAPI&lt;div&gt;(Rust / docker)&lt;/div&gt;" style="rounded=0;whiteSpace=wrap;html=1;verticalAlign=bottom;spacing=10;" vertex="1" parent="1">
                    <mxGeometry x="660" y="505" width="180" height="55" as="geometry"/>
                </mxCell>
                <mxCell id="47" value="" style="shape=image;verticalLabelPosition=bottom;verticalAlign=top;imageAspect=0;image=data:image/svg+xml,PHN2ZyB4bWxucz0iaHR0cDovL3d3dy53My5vcmcvMjAwMC9zdmciIGZpbGw9Im5vbmUiIHZpZXdCb3g9IjAgMCA2NCA2NCIgaGVpZ2h0PSI4MDBweCIgd2lkdGg9IjgwMHB4Ij4KCjxnIHN0cm9rZS13aWR0aD0iMCIgaWQ9IlNWR1JlcG9fYmdDYXJyaWVyIi8+Cgo8ZyBzdHJva2UtbGluZWpvaW49InJvdW5kIiBzdHJva2UtbGluZWNhcD0icm91bmQiIGlkPSJTVkdSZXBvX3RyYWNlckNhcnJpZXIiLz4KCjxnIGlkPSJTVkdSZXBvX2ljb25DYXJyaWVyIj4KCjxwYXRoIGZpbGw9IiMwMDAwMDAiIGQ9Im00Ny43ODEgMzEuNjA4LTEuMzQzLS44MzJhMTguNTcgMTguNTcgMCAwIDAtLjAzOC0uMzkxbDEuMTU0LTEuMDc3YS40Ni40NiAwIDAgMC0uMTUzLS43NzFsLTEuNDc2LS41NTJhMTYuNzk4IDE2Ljc5OCAwIDAgMC0uMTE1LS4zODFsLjkyLTEuMjc5YS40NjIuNDYyIDAgMCAwLS4zLS43MjdsLTEuNTU3LS4yNTNjLS4wNi0uMTE4LS4xMjMtLjIzNC0uMTg3LS4zNWwuNjU0LTEuNDM1YS40Ni40NiAwIDAgMC0uNDM3LS42NTRsLTEuNTc5LjA1NWExMi40ODIgMTIuNDgyIDAgMCAwLS4yNS0uMzAybC4zNjMtMS41MzlhLjQ2MS40NjEgMCAwIDAtLjU1Ni0uNTU2bC0xLjUzOC4zNjJjLS4xLS4wODQtLjItLjE2Ny0uMzAzLS4yNWwuMDU1LTEuNTc4YS40Ni40NiAwIDAgMC0uNjU0LS40MzdsLTEuNDM1LjY1NGExNi43MTIgMTYuNzEyIDAgMCAwLS4zNS0uMTg4bC0uMjUzLTEuNTU2YS40NjIuNDYyIDAgMCAwLS43MjYtLjMwMWwtMS4yOC45MmExNC4zMSAxNC4zMSAwIDAgMC0uMzgtLjExNWwtLjU1Mi0xLjQ3NmEuNDYxLjQ2MSAwIDAgMC0uNzcxLS4xNTRsLTEuMDc3IDEuMTU2Yy0uMTMtLjAxNC0uMjYtLjAyOC0uMzkxLS4wMzhsLS44MzItMS4zNDRhLjQ2Mi40NjIgMCAwIDAtLjc4NiAwbC0uODMyIDEuMzQ0Yy0uMTMuMDEtLjI2MS4wMjQtLjM5MS4wMzhsLTEuMDc3LTEuMTU1YS40NjQuNDY0IDAgMCAwLS43NzEuMTUzbC0uNTUyIDEuNDc2Yy0uMTI4LjAzNy0uMjU1LjA3Ni0uMzguMTE2bC0xLjI4LS45MjFhLjQ2LjQ2IDAgMCAwLS43MjcuM2wtLjI1NCAxLjU1N2MtLjExNy4wNjEtLjIzMy4xMjQtLjM1LjE4OGwtMS40MzQtLjY1NGEuNDYuNDYgMCAwIDAtLjY1NC40MzZsLjA1NSAxLjU4Yy0uMTAyLjA4Mi0uMjAzLjE2NS0uMzAzLjI1bC0xLjUzOC0uMzYzYS40NjQuNDY0IDAgMCAwLS41NTcuNTU2bC4zNjMgMS41MzljLS4wODUuMS0uMTY4LjItLjI1LjMwMmwtMS41NzktLjA1NWEuNDYyLjQ2MiAwIDAgMC0uNDM3LjY1NGwuNjU0IDEuNDM2Yy0uMDYzLjExNS0uMTI2LjIzMS0uMTg3LjM1bC0xLjU1Ni4yNTJhLjQ2Mi40NjIgMCAwIDAtLjMwMS43MjdsLjkyIDEuMjc5Yy0uMDQuMTI2LS4wNzguMjUzLS4xMTUuMzhsLTEuNDc2LjU1M2EuNDYyLjQ2MiAwIDAgMC0uMTUzLjc3MWwxLjE1NSAxLjA3N2MtLjAxNS4xMy0uMDI4LjI2LS4wMzkuMzkxbC0xLjM0My44MzJhLjQ2Mi40NjIgMCAwIDAgMCAuNzg2bDEuMzQzLjgzMWMuMDExLjEzMS4wMjQuMjYyLjAzOS4zOTJsLTEuMTU1IDEuMDc3YS40NjIuNDYyIDAgMCAwIC4xNTMuNzcxbDEuNDc2LjU1MmMuMDM3LjEyOC4wNzYuMjU1LjExNi4zOGwtLjkyMSAxLjI4YS40NjIuNDYyIDAgMCAwIC4zMDEuNzI2bDEuNTU2LjI1M2MuMDYxLjExOC4xMjMuMjM1LjE4OC4zNWwtLjY1NSAxLjQzNWEuNDYyLjQ2MiAwIDAgMCAuNDM3LjY1NGwxLjU3OS0uMDU1Yy4wODIuMTAzLjE2NS4yMDMuMjUuMzAzbC0uMzYzIDEuNTM5YS40Ni40NiAwIDAgMCAuNTU3LjU1NWwxLjUzOC0uMzYyYy4xLjA4NS4yMDEuMTY3LjMwMy4yNDlsLS4wNTUgMS41OGEuNDYxLjQ2MSAwIDAgMCAuNjU0LjQzNmwxLjQzNS0uNjU0Yy4xMTUuMDY0LjIzMi4xMjcuMzUuMTg4bC4yNTMgMS41NTVhLjQ2MS40NjEgMCAwIDAgLjcyNy4zMDJsMS4yNzktLjkyMmMuMTI2LjA0LjI1My4wOC4zOC4xMTZsLjU1MiAxLjQ3NmEuNDYuNDYgMCAwIDAgLjc3MS4xNTNsMS4wNzgtMS4xNTVjLjEzLjAxNS4yNi4wMjguMzkxLjA0bC44MzIgMS4zNDNhLjQ2My40NjMgMCAwIDAgLjc4NiAwbC44MzEtMS4zNDRjLjEzMS0uMDExLjI2Mi0uMDI0LjM5Mi0uMDM5bDEuMDc3IDEuMTU1YS40Ni40NiAwIDAgMCAuNzctLjE1M2wuNTUzLTEuNDc2Yy4xMjctLjAzNi4yNTQtLjA3Ni4zOC0uMTE2bDEuMjguOTIyYS40NjMuNDYzIDAgMCAwIC43MjYtLjMwMmwuMjU0LTEuNTU2Yy4xMTctLjA2LjIzMy0uMTI0LjM0OS0uMTg3bDEuNDM1LjY1NGEuNDYxLjQ2MSAwIDAgMCAuNjU0LS40MzdsLS4wNTUtMS41OGMuMTAyLS4wOC4yMDMtLjE2My4zMDMtLjI0OGwxLjUzOC4zNjJhLjQ2LjQ2IDAgMCAwIC41NTYtLjU1NWwtLjM2Mi0xLjUzOWMuMDg0LS4xLjE2Ny0uMi4yNDktLjMwM2wxLjU4LjA1NWEuNDYuNDYgMCAwIDAgLjQzNi0uNjU0bC0uNjU0LTEuNDM1Yy4wNjQtLjExNS4xMjYtLjIzMi4xODctLjM1bDEuNTU2LS4yNTNhLjQ2LjQ2IDAgMCAwIC4zMDEtLjcyNmwtLjkyLTEuMjhhMTcuNSAxNy41IDAgMCAwIC4xMTUtLjM4bDEuNDc2LS41NTJhLjQ2LjQ2IDAgMCAwIC4xNTMtLjc3MWwtMS4xNTUtMS4wNzdjLjAxNC0uMTMuMDI3LS4yNjEuMDM5LS4zOTJsMS4zNDMtLjgzMWEuNDYyLjQ2MiAwIDAgMCAwLS43ODZ6TTM4Ljc5IDQyLjc1MmEuOTUyLjk1MiAwIDAgMSAuMzk5LTEuODYxLjk1Mi45NTIgMCAwIDEtLjQgMS44NjF6bS0uNDU3LTMuMDg3YS44NjYuODY2IDAgMCAwLTEuMDI4LjY2NmwtLjQ3NyAyLjIyNkExMS42NDkgMTEuNjQ5IDAgMCAxIDMyIDQzLjU5N2MtMS43NiAwLTMuNDMtLjM5LTQuOTI5LTEuMDg3bC0uNDc3LTIuMjI1YS44NjYuODY2IDAgMCAwLTEuMDI4LS42NjdsLTEuOTY1LjQyMmExMS42OCAxMS42OCAwIDAgMS0xLjAxNi0xLjE5N2g5LjU2MWMuMTA4IDAgLjE4LS4wMi4xOC0uMTE4di0zLjM4MmMwLS4wOTktLjA3Mi0uMTE4LS4xOC0uMTE4SDI5LjM1VjMzLjA4aDMuMDI0Yy4yNzYgMCAxLjQ3Ni4wNzkgMS44NiAxLjYxMy4xMi40NzEuMzg0IDIuMDA2LjU2NCAyLjQ5Ny4xOC41NTEuOTEyIDEuNjUyIDEuNjkyIDEuNjUyaDQuNzY0YS45NzcuOTc3IDAgMCAwIC4xNzMtLjAxN2MtLjMzLjQ0OS0uNjkzLjg3NC0xLjA4MyAxLjI3bC0yLjAxLS40MzF6bS0xMy4yMjMgMy4wNGEuOTUyLjk1MiAwIDAgMS0uMzk5LTEuODYxLjk1Ljk1IDAgMCAxIC4zOTggMS44NjJ6bS0zLjYyNy0xNC43MDdhLjk1Ljk1IDAgMSAxLTEuNzM3Ljc3MS45NS45NSAwIDEgMSAxLjczNy0uNzcxem0tMS4xMTUgMi42NDMgMi4wNDctLjkxYS44NjguODY4IDAgMCAwIC40NC0xLjE0NWwtLjQyMS0uOTUzaDEuNjU4djcuNDc0aC0zLjM0NWExMS43MTQgMTEuNzE0IDAgMCAxLS4zOC00LjQ2NnptOC45ODMtLjcyNnYtMi4yMDNoMy45NDhjLjIwNCAwIDEuNDQuMjM2IDEuNDQgMS4xNiAwIC43NjctLjk0OCAxLjA0My0xLjcyOCAxLjA0M2gtMy42NnpNNDMuNyAzMS44OThjMCAuMjkyLS4wMTEuNTgxLS4wMzMuODY4aC0xLjJjLS4xMiAwLS4xNjguMDgtLjE2OC4xOTd2LjU1MWMwIDEuMjk4LS43MzIgMS41OC0xLjM3MyAxLjY1Mi0uNjEuMDY4LTEuMjg4LS4yNTYtMS4zNzEtLjYzLS4zNi0yLjAyNS0uOTYtMi40NTgtMS45MDgtMy4yMDYgMS4xNzYtLjc0NiAyLjQtMS44NDggMi40LTMuMzIzIDAtMS41OTMtMS4wOTItMi41OTYtMS44MzYtMy4wODgtMS4wNDQtLjY4OC0yLjItLjgyNi0yLjUxMi0uODI2SDIzLjI4NWExMS42ODQgMTEuNjg0IDAgMCAxIDYuNTQ1LTMuNjk0bDEuNDYzIDEuNTM1Yy4zMzEuMzQ2Ljg4LjM2IDEuMjI1LjAyOGwxLjYzOC0xLjU2NmExMS43MSAxMS43MSAwIDAgMSA4LjAwOSA1LjcwNGwtMS4xMjEgMi41MzJhLjg2OS44NjkgMCAwIDAgLjQ0IDEuMTQ1bDIuMTU5Ljk1OGMuMDM3LjM4My4wNTYuNzcuMDU2IDEuMTYzek0zMS4yOTQgMTkuMDkzYS45NS45NSAwIDAgMSAxLjM0NC4wMzEuOTUyLjk1MiAwIDAgMS0uMDMyIDEuMzQ2Ljk0OS45NDkgMCAwIDEtMS4zNDMtLjAzMi45NTMuOTUzIDAgMCAxIC4wMzEtMS4zNDV6bTExLjEyMyA4Ljk1MWEuOTUuOTUgMCAxIDEgMS43MzcuNzcyLjk1Ljk1IDAgMSAxLTEuNzM3LS43NzJ6Ii8+Cgo8L2c+Cgo8L3N2Zz4=;" vertex="1" parent="1">
                    <mxGeometry x="630" y="480" width="60" height="55" as="geometry"/>
                </mxCell>
                <mxCell id="50" value="" style="endArrow=classic;html=1;entryX=0.5;entryY=1;entryDx=0;entryDy=0;exitX=0.5;exitY=0;exitDx=0;exitDy=0;" edge="1" parent="1" source="42" target="46">
                    <mxGeometry width="50" height="50" relative="1" as="geometry">
                        <mxPoint x="253" y="640" as="sourcePoint"/>
                        <mxPoint x="625" y="460" as="targetPoint"/>
                        <Array as="points">
                            <mxPoint x="205" y="680"/>
                            <mxPoint x="750" y="680"/>
                        </Array>
                    </mxGeometry>
                </mxCell>
                <mxCell id="51" value="" style="endArrow=classic;html=1;entryX=0.5;entryY=1;entryDx=0;entryDy=0;exitX=0.5;exitY=0;exitDx=0;exitDy=0;" edge="1" parent="1" source="44" target="46">
                    <mxGeometry width="50" height="50" relative="1" as="geometry">
                        <mxPoint x="258" y="645" as="sourcePoint"/>
                        <mxPoint x="755" y="565" as="targetPoint"/>
                        <Array as="points">
                            <mxPoint x="430" y="680"/>
                            <mxPoint x="750" y="680"/>
                        </Array>
                    </mxGeometry>
                </mxCell>
                <mxCell id="52" value="" style="endArrow=classic;html=1;entryX=0.5;entryY=1;entryDx=0;entryDy=0;exitX=0.5;exitY=0;exitDx=0;exitDy=0;" edge="1" parent="1" source="45" target="46">
                    <mxGeometry width="50" height="50" relative="1" as="geometry">
                        <mxPoint x="258" y="645" as="sourcePoint"/>
                        <mxPoint x="755" y="565" as="targetPoint"/>
                        <Array as="points">
                            <mxPoint x="680" y="680"/>
                            <mxPoint x="750" y="680"/>
                        </Array>
                    </mxGeometry>
                </mxCell>
                <mxCell id="53" value="IPアドレス取得API&lt;br&gt;&lt;div&gt;(Rust / docker)&lt;/div&gt;" style="rounded=0;whiteSpace=wrap;html=1;verticalAlign=bottom;spacing=10;" vertex="1" parent="1">
                    <mxGeometry x="955" y="505" width="180" height="55" as="geometry"/>
                </mxCell>
                <mxCell id="54" value="" style="shape=image;verticalLabelPosition=bottom;verticalAlign=top;imageAspect=0;image=data:image/svg+xml,PHN2ZyB4bWxucz0iaHR0cDovL3d3dy53My5vcmcvMjAwMC9zdmciIGZpbGw9Im5vbmUiIHZpZXdCb3g9IjAgMCA2NCA2NCIgaGVpZ2h0PSI4MDBweCIgd2lkdGg9IjgwMHB4Ij4KCjxnIHN0cm9rZS13aWR0aD0iMCIgaWQ9IlNWR1JlcG9fYmdDYXJyaWVyIi8+Cgo8ZyBzdHJva2UtbGluZWpvaW49InJvdW5kIiBzdHJva2UtbGluZWNhcD0icm91bmQiIGlkPSJTVkdSZXBvX3RyYWNlckNhcnJpZXIiLz4KCjxnIGlkPSJTVkdSZXBvX2ljb25DYXJyaWVyIj4KCjxwYXRoIGZpbGw9IiMwMDAwMDAiIGQ9Im00Ny43ODEgMzEuNjA4LTEuMzQzLS44MzJhMTguNTcgMTguNTcgMCAwIDAtLjAzOC0uMzkxbDEuMTU0LTEuMDc3YS40Ni40NiAwIDAgMC0uMTUzLS43NzFsLTEuNDc2LS41NTJhMTYuNzk4IDE2Ljc5OCAwIDAgMC0uMTE1LS4zODFsLjkyLTEuMjc5YS40NjIuNDYyIDAgMCAwLS4zLS43MjdsLTEuNTU3LS4yNTNjLS4wNi0uMTE4LS4xMjMtLjIzNC0uMTg3LS4zNWwuNjU0LTEuNDM1YS40Ni40NiAwIDAgMC0uNDM3LS42NTRsLTEuNTc5LjA1NWExMi40ODIgMTIuNDgyIDAgMCAwLS4yNS0uMzAybC4zNjMtMS41MzlhLjQ2MS40NjEgMCAwIDAtLjU1Ni0uNTU2bC0xLjUzOC4zNjJjLS4xLS4wODQtLjItLjE2Ny0uMzAzLS4yNWwuMDU1LTEuNTc4YS40Ni40NiAwIDAgMC0uNjU0LS40MzdsLTEuNDM1LjY1NGExNi43MTIgMTYuNzEyIDAgMCAwLS4zNS0uMTg4bC0uMjUzLTEuNTU2YS40NjIuNDYyIDAgMCAwLS43MjYtLjMwMWwtMS4yOC45MmExNC4zMSAxNC4zMSAwIDAgMC0uMzgtLjExNWwtLjU1Mi0xLjQ3NmEuNDYxLjQ2MSAwIDAgMC0uNzcxLS4xNTRsLTEuMDc3IDEuMTU2Yy0uMTMtLjAxNC0uMjYtLjAyOC0uMzkxLS4wMzhsLS44MzItMS4zNDRhLjQ2Mi40NjIgMCAwIDAtLjc4NiAwbC0uODMyIDEuMzQ0Yy0uMTMuMDEtLjI2MS4wMjQtLjM5MS4wMzhsLTEuMDc3LTEuMTU1YS40NjQuNDY0IDAgMCAwLS43NzEuMTUzbC0uNTUyIDEuNDc2Yy0uMTI4LjAzNy0uMjU1LjA3Ni0uMzguMTE2bC0xLjI4LS45MjFhLjQ2LjQ2IDAgMCAwLS43MjcuM2wtLjI1NCAxLjU1N2MtLjExNy4wNjEtLjIzMy4xMjQtLjM1LjE4OGwtMS40MzQtLjY1NGEuNDYuNDYgMCAwIDAtLjY1NC40MzZsLjA1NSAxLjU4Yy0uMTAyLjA4Mi0uMjAzLjE2NS0uMzAzLjI1bC0xLjUzOC0uMzYzYS40NjQuNDY0IDAgMCAwLS41NTcuNTU2bC4zNjMgMS41MzljLS4wODUuMS0uMTY4LjItLjI1LjMwMmwtMS41NzktLjA1NWEuNDYyLjQ2MiAwIDAgMC0uNDM3LjY1NGwuNjU0IDEuNDM2Yy0uMDYzLjExNS0uMTI2LjIzMS0uMTg3LjM1bC0xLjU1Ni4yNTJhLjQ2Mi40NjIgMCAwIDAtLjMwMS43MjdsLjkyIDEuMjc5Yy0uMDQuMTI2LS4wNzguMjUzLS4xMTUuMzhsLTEuNDc2LjU1M2EuNDYyLjQ2MiAwIDAgMC0uMTUzLjc3MWwxLjE1NSAxLjA3N2MtLjAxNS4xMy0uMDI4LjI2LS4wMzkuMzkxbC0xLjM0My44MzJhLjQ2Mi40NjIgMCAwIDAgMCAuNzg2bDEuMzQzLjgzMWMuMDExLjEzMS4wMjQuMjYyLjAzOS4zOTJsLTEuMTU1IDEuMDc3YS40NjIuNDYyIDAgMCAwIC4xNTMuNzcxbDEuNDc2LjU1MmMuMDM3LjEyOC4wNzYuMjU1LjExNi4zOGwtLjkyMSAxLjI4YS40NjIuNDYyIDAgMCAwIC4zMDEuNzI2bDEuNTU2LjI1M2MuMDYxLjExOC4xMjMuMjM1LjE4OC4zNWwtLjY1NSAxLjQzNWEuNDYyLjQ2MiAwIDAgMCAuNDM3LjY1NGwxLjU3OS0uMDU1Yy4wODIuMTAzLjE2NS4yMDMuMjUuMzAzbC0uMzYzIDEuNTM5YS40Ni40NiAwIDAgMCAuNTU3LjU1NWwxLjUzOC0uMzYyYy4xLjA4NS4yMDEuMTY3LjMwMy4yNDlsLS4wNTUgMS41OGEuNDYxLjQ2MSAwIDAgMCAuNjU0LjQzNmwxLjQzNS0uNjU0Yy4xMTUuMDY0LjIzMi4xMjcuMzUuMTg4bC4yNTMgMS41NTVhLjQ2MS40NjEgMCAwIDAgLjcyNy4zMDJsMS4yNzktLjkyMmMuMTI2LjA0LjI1My4wOC4zOC4xMTZsLjU1MiAxLjQ3NmEuNDYuNDYgMCAwIDAgLjc3MS4xNTNsMS4wNzgtMS4xNTVjLjEzLjAxNS4yNi4wMjguMzkxLjA0bC44MzIgMS4zNDNhLjQ2My40NjMgMCAwIDAgLjc4NiAwbC44MzEtMS4zNDRjLjEzMS0uMDExLjI2Mi0uMDI0LjM5Mi0uMDM5bDEuMDc3IDEuMTU1YS40Ni40NiAwIDAgMCAuNzctLjE1M2wuNTUzLTEuNDc2Yy4xMjctLjAzNi4yNTQtLjA3Ni4zOC0uMTE2bDEuMjguOTIyYS40NjMuNDYzIDAgMCAwIC43MjYtLjMwMmwuMjU0LTEuNTU2Yy4xMTctLjA2LjIzMy0uMTI0LjM0OS0uMTg3bDEuNDM1LjY1NGEuNDYxLjQ2MSAwIDAgMCAuNjU0LS40MzdsLS4wNTUtMS41OGMuMTAyLS4wOC4yMDMtLjE2My4zMDMtLjI0OGwxLjUzOC4zNjJhLjQ2LjQ2IDAgMCAwIC41NTYtLjU1NWwtLjM2Mi0xLjUzOWMuMDg0LS4xLjE2Ny0uMi4yNDktLjMwM2wxLjU4LjA1NWEuNDYuNDYgMCAwIDAgLjQzNi0uNjU0bC0uNjU0LTEuNDM1Yy4wNjQtLjExNS4xMjYtLjIzMi4xODctLjM1bDEuNTU2LS4yNTNhLjQ2LjQ2IDAgMCAwIC4zMDEtLjcyNmwtLjkyLTEuMjhhMTcuNSAxNy41IDAgMCAwIC4xMTUtLjM4bDEuNDc2LS41NTJhLjQ2LjQ2IDAgMCAwIC4xNTMtLjc3MWwtMS4xNTUtMS4wNzdjLjAxNC0uMTMuMDI3LS4yNjEuMDM5LS4zOTJsMS4zNDMtLjgzMWEuNDYyLjQ2MiAwIDAgMCAwLS43ODZ6TTM4Ljc5IDQyLjc1MmEuOTUyLjk1MiAwIDAgMSAuMzk5LTEuODYxLjk1Mi45NTIgMCAwIDEtLjQgMS44NjF6bS0uNDU3LTMuMDg3YS44NjYuODY2IDAgMCAwLTEuMDI4LjY2NmwtLjQ3NyAyLjIyNkExMS42NDkgMTEuNjQ5IDAgMCAxIDMyIDQzLjU5N2MtMS43NiAwLTMuNDMtLjM5LTQuOTI5LTEuMDg3bC0uNDc3LTIuMjI1YS44NjYuODY2IDAgMCAwLTEuMDI4LS42NjdsLTEuOTY1LjQyMmExMS42OCAxMS42OCAwIDAgMS0xLjAxNi0xLjE5N2g5LjU2MWMuMTA4IDAgLjE4LS4wMi4xOC0uMTE4di0zLjM4MmMwLS4wOTktLjA3Mi0uMTE4LS4xOC0uMTE4SDI5LjM1VjMzLjA4aDMuMDI0Yy4yNzYgMCAxLjQ3Ni4wNzkgMS44NiAxLjYxMy4xMi40NzEuMzg0IDIuMDA2LjU2NCAyLjQ5Ny4xOC41NTEuOTEyIDEuNjUyIDEuNjkyIDEuNjUyaDQuNzY0YS45NzcuOTc3IDAgMCAwIC4xNzMtLjAxN2MtLjMzLjQ0OS0uNjkzLjg3NC0xLjA4MyAxLjI3bC0yLjAxLS40MzF6bS0xMy4yMjMgMy4wNGEuOTUyLjk1MiAwIDAgMS0uMzk5LTEuODYxLjk1Ljk1IDAgMCAxIC4zOTggMS44NjJ6bS0zLjYyNy0xNC43MDdhLjk1Ljk1IDAgMSAxLTEuNzM3Ljc3MS45NS45NSAwIDEgMSAxLjczNy0uNzcxem0tMS4xMTUgMi42NDMgMi4wNDctLjkxYS44NjguODY4IDAgMCAwIC40NC0xLjE0NWwtLjQyMS0uOTUzaDEuNjU4djcuNDc0aC0zLjM0NWExMS43MTQgMTEuNzE0IDAgMCAxLS4zOC00LjQ2NnptOC45ODMtLjcyNnYtMi4yMDNoMy45NDhjLjIwNCAwIDEuNDQuMjM2IDEuNDQgMS4xNiAwIC43NjctLjk0OCAxLjA0My0xLjcyOCAxLjA0M2gtMy42NnpNNDMuNyAzMS44OThjMCAuMjkyLS4wMTEuNTgxLS4wMzMuODY4aC0xLjJjLS4xMiAwLS4xNjguMDgtLjE2OC4xOTd2LjU1MWMwIDEuMjk4LS43MzIgMS41OC0xLjM3MyAxLjY1Mi0uNjEuMDY4LTEuMjg4LS4yNTYtMS4zNzEtLjYzLS4zNi0yLjAyNS0uOTYtMi40NTgtMS45MDgtMy4yMDYgMS4xNzYtLjc0NiAyLjQtMS44NDggMi40LTMuMzIzIDAtMS41OTMtMS4wOTItMi41OTYtMS44MzYtMy4wODgtMS4wNDQtLjY4OC0yLjItLjgyNi0yLjUxMi0uODI2SDIzLjI4NWExMS42ODQgMTEuNjg0IDAgMCAxIDYuNTQ1LTMuNjk0bDEuNDYzIDEuNTM1Yy4zMzEuMzQ2Ljg4LjM2IDEuMjI1LjAyOGwxLjYzOC0xLjU2NmExMS43MSAxMS43MSAwIDAgMSA4LjAwOSA1LjcwNGwtMS4xMjEgMi41MzJhLjg2OS44NjkgMCAwIDAgLjQ0IDEuMTQ1bDIuMTU5Ljk1OGMuMDM3LjM4My4wNTYuNzcuMDU2IDEuMTYzek0zMS4yOTQgMTkuMDkzYS45NS45NSAwIDAgMSAxLjM0NC4wMzEuOTUyLjk1MiAwIDAgMS0uMDMyIDEuMzQ2Ljk0OS45NDkgMCAwIDEtMS4zNDMtLjAzMi45NTMuOTUzIDAgMCAxIC4wMzEtMS4zNDV6bTExLjEyMyA4Ljk1MWEuOTUuOTUgMCAxIDEgMS43MzcuNzcyLjk1Ljk1IDAgMSAxLTEuNzM3LS43NzJ6Ii8+Cgo8L2c+Cgo8L3N2Zz4=;" vertex="1" parent="1">
                    <mxGeometry x="925" y="480" width="60" height="55" as="geometry"/>
                </mxCell>
                <mxCell id="55" value="" style="endArrow=classic;html=1;entryX=0.5;entryY=1;entryDx=0;entryDy=0;exitX=1.007;exitY=0.545;exitDx=0;exitDy=0;exitPerimeter=0;" edge="1" parent="1" source="46" target="54">
                    <mxGeometry width="50" height="50" relative="1" as="geometry">
                        <mxPoint x="645" y="545" as="sourcePoint"/>
                        <mxPoint x="695" y="495" as="targetPoint"/>
                    </mxGeometry>
                </mxCell>
                <mxCell id="56" value="ユーザー認証API&lt;br&gt;&lt;div&gt;(Rust / docker)&lt;/div&gt;" style="rounded=0;whiteSpace=wrap;html=1;verticalAlign=bottom;spacing=10;" vertex="1" parent="1">
                    <mxGeometry x="660" y="400" width="180" height="55" as="geometry"/>
                </mxCell>
                <mxCell id="57" value="" style="endArrow=classic;html=1;entryX=0.5;entryY=1;entryDx=0;entryDy=0;exitX=0.5;exitY=0;exitDx=0;exitDy=0;" edge="1" parent="1" source="46" target="56">
                    <mxGeometry width="50" height="50" relative="1" as="geometry">
                        <mxPoint x="740" y="470" as="sourcePoint"/>
                        <mxPoint x="854" y="470" as="targetPoint"/>
                    </mxGeometry>
                </mxCell>
                <mxCell id="58" value="" style="shape=image;verticalLabelPosition=bottom;verticalAlign=top;imageAspect=0;image=data:image/svg+xml,PHN2ZyB4bWxucz0iaHR0cDovL3d3dy53My5vcmcvMjAwMC9zdmciIGZpbGw9Im5vbmUiIHZpZXdCb3g9IjAgMCA2NCA2NCIgaGVpZ2h0PSI4MDBweCIgd2lkdGg9IjgwMHB4Ij4KCjxnIHN0cm9rZS13aWR0aD0iMCIgaWQ9IlNWR1JlcG9fYmdDYXJyaWVyIi8+Cgo8ZyBzdHJva2UtbGluZWpvaW49InJvdW5kIiBzdHJva2UtbGluZWNhcD0icm91bmQiIGlkPSJTVkdSZXBvX3RyYWNlckNhcnJpZXIiLz4KCjxnIGlkPSJTVkdSZXBvX2ljb25DYXJyaWVyIj4KCjxwYXRoIGZpbGw9IiMwMDAwMDAiIGQ9Im00Ny43ODEgMzEuNjA4LTEuMzQzLS44MzJhMTguNTcgMTguNTcgMCAwIDAtLjAzOC0uMzkxbDEuMTU0LTEuMDc3YS40Ni40NiAwIDAgMC0uMTUzLS43NzFsLTEuNDc2LS41NTJhMTYuNzk4IDE2Ljc5OCAwIDAgMC0uMTE1LS4zODFsLjkyLTEuMjc5YS40NjIuNDYyIDAgMCAwLS4zLS43MjdsLTEuNTU3LS4yNTNjLS4wNi0uMTE4LS4xMjMtLjIzNC0uMTg3LS4zNWwuNjU0LTEuNDM1YS40Ni40NiAwIDAgMC0uNDM3LS42NTRsLTEuNTc5LjA1NWExMi40ODIgMTIuNDgyIDAgMCAwLS4yNS0uMzAybC4zNjMtMS41MzlhLjQ2MS40NjEgMCAwIDAtLjU1Ni0uNTU2bC0xLjUzOC4zNjJjLS4xLS4wODQtLjItLjE2Ny0uMzAzLS4yNWwuMDU1LTEuNTc4YS40Ni40NiAwIDAgMC0uNjU0LS40MzdsLTEuNDM1LjY1NGExNi43MTIgMTYuNzEyIDAgMCAwLS4zNS0uMTg4bC0uMjUzLTEuNTU2YS40NjIuNDYyIDAgMCAwLS43MjYtLjMwMWwtMS4yOC45MmExNC4zMSAxNC4zMSAwIDAgMC0uMzgtLjExNWwtLjU1Mi0xLjQ3NmEuNDYxLjQ2MSAwIDAgMC0uNzcxLS4xNTRsLTEuMDc3IDEuMTU2Yy0uMTMtLjAxNC0uMjYtLjAyOC0uMzkxLS4wMzhsLS44MzItMS4zNDRhLjQ2Mi40NjIgMCAwIDAtLjc4NiAwbC0uODMyIDEuMzQ0Yy0uMTMuMDEtLjI2MS4wMjQtLjM5MS4wMzhsLTEuMDc3LTEuMTU1YS40NjQuNDY0IDAgMCAwLS43NzEuMTUzbC0uNTUyIDEuNDc2Yy0uMTI4LjAzNy0uMjU1LjA3Ni0uMzguMTE2bC0xLjI4LS45MjFhLjQ2LjQ2IDAgMCAwLS43MjcuM2wtLjI1NCAxLjU1N2MtLjExNy4wNjEtLjIzMy4xMjQtLjM1LjE4OGwtMS40MzQtLjY1NGEuNDYuNDYgMCAwIDAtLjY1NC40MzZsLjA1NSAxLjU4Yy0uMTAyLjA4Mi0uMjAzLjE2NS0uMzAzLjI1bC0xLjUzOC0uMzYzYS40NjQuNDY0IDAgMCAwLS41NTcuNTU2bC4zNjMgMS41MzljLS4wODUuMS0uMTY4LjItLjI1LjMwMmwtMS41NzktLjA1NWEuNDYyLjQ2MiAwIDAgMC0uNDM3LjY1NGwuNjU0IDEuNDM2Yy0uMDYzLjExNS0uMTI2LjIzMS0uMTg3LjM1bC0xLjU1Ni4yNTJhLjQ2Mi40NjIgMCAwIDAtLjMwMS43MjdsLjkyIDEuMjc5Yy0uMDQuMTI2LS4wNzguMjUzLS4xMTUuMzhsLTEuNDc2LjU1M2EuNDYyLjQ2MiAwIDAgMC0uMTUzLjc3MWwxLjE1NSAxLjA3N2MtLjAxNS4xMy0uMDI4LjI2LS4wMzkuMzkxbC0xLjM0My44MzJhLjQ2Mi40NjIgMCAwIDAgMCAuNzg2bDEuMzQzLjgzMWMuMDExLjEzMS4wMjQuMjYyLjAzOS4zOTJsLTEuMTU1IDEuMDc3YS40NjIuNDYyIDAgMCAwIC4xNTMuNzcxbDEuNDc2LjU1MmMuMDM3LjEyOC4wNzYuMjU1LjExNi4zOGwtLjkyMSAxLjI4YS40NjIuNDYyIDAgMCAwIC4zMDEuNzI2bDEuNTU2LjI1M2MuMDYxLjExOC4xMjMuMjM1LjE4OC4zNWwtLjY1NSAxLjQzNWEuNDYyLjQ2MiAwIDAgMCAuNDM3LjY1NGwxLjU3OS0uMDU1Yy4wODIuMTAzLjE2NS4yMDMuMjUuMzAzbC0uMzYzIDEuNTM5YS40Ni40NiAwIDAgMCAuNTU3LjU1NWwxLjUzOC0uMzYyYy4xLjA4NS4yMDEuMTY3LjMwMy4yNDlsLS4wNTUgMS41OGEuNDYxLjQ2MSAwIDAgMCAuNjU0LjQzNmwxLjQzNS0uNjU0Yy4xMTUuMDY0LjIzMi4xMjcuMzUuMTg4bC4yNTMgMS41NTVhLjQ2MS40NjEgMCAwIDAgLjcyNy4zMDJsMS4yNzktLjkyMmMuMTI2LjA0LjI1My4wOC4zOC4xMTZsLjU1MiAxLjQ3NmEuNDYuNDYgMCAwIDAgLjc3MS4xNTNsMS4wNzgtMS4xNTVjLjEzLjAxNS4yNi4wMjguMzkxLjA0bC44MzIgMS4zNDNhLjQ2My40NjMgMCAwIDAgLjc4NiAwbC44MzEtMS4zNDRjLjEzMS0uMDExLjI2Mi0uMDI0LjM5Mi0uMDM5bDEuMDc3IDEuMTU1YS40Ni40NiAwIDAgMCAuNzctLjE1M2wuNTUzLTEuNDc2Yy4xMjctLjAzNi4yNTQtLjA3Ni4zOC0uMTE2bDEuMjguOTIyYS40NjMuNDYzIDAgMCAwIC43MjYtLjMwMmwuMjU0LTEuNTU2Yy4xMTctLjA2LjIzMy0uMTI0LjM0OS0uMTg3bDEuNDM1LjY1NGEuNDYxLjQ2MSAwIDAgMCAuNjU0LS40MzdsLS4wNTUtMS41OGMuMTAyLS4wOC4yMDMtLjE2My4zMDMtLjI0OGwxLjUzOC4zNjJhLjQ2LjQ2IDAgMCAwIC41NTYtLjU1NWwtLjM2Mi0xLjUzOWMuMDg0LS4xLjE2Ny0uMi4yNDktLjMwM2wxLjU4LjA1NWEuNDYuNDYgMCAwIDAgLjQzNi0uNjU0bC0uNjU0LTEuNDM1Yy4wNjQtLjExNS4xMjYtLjIzMi4xODctLjM1bDEuNTU2LS4yNTNhLjQ2LjQ2IDAgMCAwIC4zMDEtLjcyNmwtLjkyLTEuMjhhMTcuNSAxNy41IDAgMCAwIC4xMTUtLjM4bDEuNDc2LS41NTJhLjQ2LjQ2IDAgMCAwIC4xNTMtLjc3MWwtMS4xNTUtMS4wNzdjLjAxNC0uMTMuMDI3LS4yNjEuMDM5LS4zOTJsMS4zNDMtLjgzMWEuNDYyLjQ2MiAwIDAgMCAwLS43ODZ6TTM4Ljc5IDQyLjc1MmEuOTUyLjk1MiAwIDAgMSAuMzk5LTEuODYxLjk1Mi45NTIgMCAwIDEtLjQgMS44NjF6bS0uNDU3LTMuMDg3YS44NjYuODY2IDAgMCAwLTEuMDI4LjY2NmwtLjQ3NyAyLjIyNkExMS42NDkgMTEuNjQ5IDAgMCAxIDMyIDQzLjU5N2MtMS43NiAwLTMuNDMtLjM5LTQuOTI5LTEuMDg3bC0uNDc3LTIuMjI1YS44NjYuODY2IDAgMCAwLTEuMDI4LS42NjdsLTEuOTY1LjQyMmExMS42OCAxMS42OCAwIDAgMS0xLjAxNi0xLjE5N2g5LjU2MWMuMTA4IDAgLjE4LS4wMi4xOC0uMTE4di0zLjM4MmMwLS4wOTktLjA3Mi0uMTE4LS4xOC0uMTE4SDI5LjM1VjMzLjA4aDMuMDI0Yy4yNzYgMCAxLjQ3Ni4wNzkgMS44NiAxLjYxMy4xMi40NzEuMzg0IDIuMDA2LjU2NCAyLjQ5Ny4xOC41NTEuOTEyIDEuNjUyIDEuNjkyIDEuNjUyaDQuNzY0YS45NzcuOTc3IDAgMCAwIC4xNzMtLjAxN2MtLjMzLjQ0OS0uNjkzLjg3NC0xLjA4MyAxLjI3bC0yLjAxLS40MzF6bS0xMy4yMjMgMy4wNGEuOTUyLjk1MiAwIDAgMS0uMzk5LTEuODYxLjk1Ljk1IDAgMCAxIC4zOTggMS44NjJ6bS0zLjYyNy0xNC43MDdhLjk1Ljk1IDAgMSAxLTEuNzM3Ljc3MS45NS45NSAwIDEgMSAxLjczNy0uNzcxem0tMS4xMTUgMi42NDMgMi4wNDctLjkxYS44NjguODY4IDAgMCAwIC40NC0xLjE0NWwtLjQyMS0uOTUzaDEuNjU4djcuNDc0aC0zLjM0NWExMS43MTQgMTEuNzE0IDAgMCAxLS4zOC00LjQ2NnptOC45ODMtLjcyNnYtMi4yMDNoMy45NDhjLjIwNCAwIDEuNDQuMjM2IDEuNDQgMS4xNiAwIC43NjctLjk0OCAxLjA0My0xLjcyOCAxLjA0M2gtMy42NnpNNDMuNyAzMS44OThjMCAuMjkyLS4wMTEuNTgxLS4wMzMuODY4aC0xLjJjLS4xMiAwLS4xNjguMDgtLjE2OC4xOTd2LjU1MWMwIDEuMjk4LS43MzIgMS41OC0xLjM3MyAxLjY1Mi0uNjEuMDY4LTEuMjg4LS4yNTYtMS4zNzEtLjYzLS4zNi0yLjAyNS0uOTYtMi40NTgtMS45MDgtMy4yMDYgMS4xNzYtLjc0NiAyLjQtMS44NDggMi40LTMuMzIzIDAtMS41OTMtMS4wOTItMi41OTYtMS44MzYtMy4wODgtMS4wNDQtLjY4OC0yLjItLjgyNi0yLjUxMi0uODI2SDIzLjI4NWExMS42ODQgMTEuNjg0IDAgMCAxIDYuNTQ1LTMuNjk0bDEuNDYzIDEuNTM1Yy4zMzEuMzQ2Ljg4LjM2IDEuMjI1LjAyOGwxLjYzOC0xLjU2NmExMS43MSAxMS43MSAwIDAgMSA4LjAwOSA1LjcwNGwtMS4xMjEgMi41MzJhLjg2OS44NjkgMCAwIDAgLjQ0IDEuMTQ1bDIuMTU5Ljk1OGMuMDM3LjM4My4wNTYuNzcuMDU2IDEuMTYzek0zMS4yOTQgMTkuMDkzYS45NS45NSAwIDAgMSAxLjM0NC4wMzEuOTUyLjk1MiAwIDAgMS0uMDMyIDEuMzQ2Ljk0OS45NDkgMCAwIDEtMS4zNDMtLjAzMi45NTMuOTUzIDAgMCAxIC4wMzEtMS4zNDV6bTExLjEyMyA4Ljk1MWEuOTUuOTUgMCAxIDEgMS43MzcuNzcyLjk1Ljk1IDAgMSAxLTEuNzM3LS43NzJ6Ii8+Cgo8L2c+Cgo8L3N2Zz4=;" vertex="1" parent="1">
                    <mxGeometry x="630" y="375" width="60" height="55" as="geometry"/>
                </mxCell>
                <mxCell id="59" value="データベースAPI&lt;br&gt;&lt;div&gt;(Rust / docker)&lt;/div&gt;" style="rounded=0;whiteSpace=wrap;html=1;verticalAlign=bottom;spacing=10;" vertex="1" parent="1">
                    <mxGeometry x="660" y="140" width="180" height="55" as="geometry"/>
                </mxCell>
                <mxCell id="60" value="" style="shape=image;verticalLabelPosition=bottom;verticalAlign=top;imageAspect=0;image=data:image/svg+xml,PHN2ZyB4bWxucz0iaHR0cDovL3d3dy53My5vcmcvMjAwMC9zdmciIGZpbGw9Im5vbmUiIHZpZXdCb3g9IjAgMCA2NCA2NCIgaGVpZ2h0PSI4MDBweCIgd2lkdGg9IjgwMHB4Ij4KCjxnIHN0cm9rZS13aWR0aD0iMCIgaWQ9IlNWR1JlcG9fYmdDYXJyaWVyIi8+Cgo8ZyBzdHJva2UtbGluZWpvaW49InJvdW5kIiBzdHJva2UtbGluZWNhcD0icm91bmQiIGlkPSJTVkdSZXBvX3RyYWNlckNhcnJpZXIiLz4KCjxnIGlkPSJTVkdSZXBvX2ljb25DYXJyaWVyIj4KCjxwYXRoIGZpbGw9IiMwMDAwMDAiIGQ9Im00Ny43ODEgMzEuNjA4LTEuMzQzLS44MzJhMTguNTcgMTguNTcgMCAwIDAtLjAzOC0uMzkxbDEuMTU0LTEuMDc3YS40Ni40NiAwIDAgMC0uMTUzLS43NzFsLTEuNDc2LS41NTJhMTYuNzk4IDE2Ljc5OCAwIDAgMC0uMTE1LS4zODFsLjkyLTEuMjc5YS40NjIuNDYyIDAgMCAwLS4zLS43MjdsLTEuNTU3LS4yNTNjLS4wNi0uMTE4LS4xMjMtLjIzNC0uMTg3LS4zNWwuNjU0LTEuNDM1YS40Ni40NiAwIDAgMC0uNDM3LS42NTRsLTEuNTc5LjA1NWExMi40ODIgMTIuNDgyIDAgMCAwLS4yNS0uMzAybC4zNjMtMS41MzlhLjQ2MS40NjEgMCAwIDAtLjU1Ni0uNTU2bC0xLjUzOC4zNjJjLS4xLS4wODQtLjItLjE2Ny0uMzAzLS4yNWwuMDU1LTEuNTc4YS40Ni40NiAwIDAgMC0uNjU0LS40MzdsLTEuNDM1LjY1NGExNi43MTIgMTYuNzEyIDAgMCAwLS4zNS0uMTg4bC0uMjUzLTEuNTU2YS40NjIuNDYyIDAgMCAwLS43MjYtLjMwMWwtMS4yOC45MmExNC4zMSAxNC4zMSAwIDAgMC0uMzgtLjExNWwtLjU1Mi0xLjQ3NmEuNDYxLjQ2MSAwIDAgMC0uNzcxLS4xNTRsLTEuMDc3IDEuMTU2Yy0uMTMtLjAxNC0uMjYtLjAyOC0uMzkxLS4wMzhsLS44MzItMS4zNDRhLjQ2Mi40NjIgMCAwIDAtLjc4NiAwbC0uODMyIDEuMzQ0Yy0uMTMuMDEtLjI2MS4wMjQtLjM5MS4wMzhsLTEuMDc3LTEuMTU1YS40NjQuNDY0IDAgMCAwLS43NzEuMTUzbC0uNTUyIDEuNDc2Yy0uMTI4LjAzNy0uMjU1LjA3Ni0uMzguMTE2bC0xLjI4LS45MjFhLjQ2LjQ2IDAgMCAwLS43MjcuM2wtLjI1NCAxLjU1N2MtLjExNy4wNjEtLjIzMy4xMjQtLjM1LjE4OGwtMS40MzQtLjY1NGEuNDYuNDYgMCAwIDAtLjY1NC40MzZsLjA1NSAxLjU4Yy0uMTAyLjA4Mi0uMjAzLjE2NS0uMzAzLjI1bC0xLjUzOC0uMzYzYS40NjQuNDY0IDAgMCAwLS41NTcuNTU2bC4zNjMgMS41MzljLS4wODUuMS0uMTY4LjItLjI1LjMwMmwtMS41NzktLjA1NWEuNDYyLjQ2MiAwIDAgMC0uNDM3LjY1NGwuNjU0IDEuNDM2Yy0uMDYzLjExNS0uMTI2LjIzMS0uMTg3LjM1bC0xLjU1Ni4yNTJhLjQ2Mi40NjIgMCAwIDAtLjMwMS43MjdsLjkyIDEuMjc5Yy0uMDQuMTI2LS4wNzguMjUzLS4xMTUuMzhsLTEuNDc2LjU1M2EuNDYyLjQ2MiAwIDAgMC0uMTUzLjc3MWwxLjE1NSAxLjA3N2MtLjAxNS4xMy0uMDI4LjI2LS4wMzkuMzkxbC0xLjM0My44MzJhLjQ2Mi40NjIgMCAwIDAgMCAuNzg2bDEuMzQzLjgzMWMuMDExLjEzMS4wMjQuMjYyLjAzOS4zOTJsLTEuMTU1IDEuMDc3YS40NjIuNDYyIDAgMCAwIC4xNTMuNzcxbDEuNDc2LjU1MmMuMDM3LjEyOC4wNzYuMjU1LjExNi4zOGwtLjkyMSAxLjI4YS40NjIuNDYyIDAgMCAwIC4zMDEuNzI2bDEuNTU2LjI1M2MuMDYxLjExOC4xMjMuMjM1LjE4OC4zNWwtLjY1NSAxLjQzNWEuNDYyLjQ2MiAwIDAgMCAuNDM3LjY1NGwxLjU3OS0uMDU1Yy4wODIuMTAzLjE2NS4yMDMuMjUuMzAzbC0uMzYzIDEuNTM5YS40Ni40NiAwIDAgMCAuNTU3LjU1NWwxLjUzOC0uMzYyYy4xLjA4NS4yMDEuMTY3LjMwMy4yNDlsLS4wNTUgMS41OGEuNDYxLjQ2MSAwIDAgMCAuNjU0LjQzNmwxLjQzNS0uNjU0Yy4xMTUuMDY0LjIzMi4xMjcuMzUuMTg4bC4yNTMgMS41NTVhLjQ2MS40NjEgMCAwIDAgLjcyNy4zMDJsMS4yNzktLjkyMmMuMTI2LjA0LjI1My4wOC4zOC4xMTZsLjU1MiAxLjQ3NmEuNDYuNDYgMCAwIDAgLjc3MS4xNTNsMS4wNzgtMS4xNTVjLjEzLjAxNS4yNi4wMjguMzkxLjA0bC44MzIgMS4zNDNhLjQ2My40NjMgMCAwIDAgLjc4NiAwbC44MzEtMS4zNDRjLjEzMS0uMDExLjI2Mi0uMDI0LjM5Mi0uMDM5bDEuMDc3IDEuMTU1YS40Ni40NiAwIDAgMCAuNzctLjE1M2wuNTUzLTEuNDc2Yy4xMjctLjAzNi4yNTQtLjA3Ni4zOC0uMTE2bDEuMjguOTIyYS40NjMuNDYzIDAgMCAwIC43MjYtLjMwMmwuMjU0LTEuNTU2Yy4xMTctLjA2LjIzMy0uMTI0LjM0OS0uMTg3bDEuNDM1LjY1NGEuNDYxLjQ2MSAwIDAgMCAuNjU0LS40MzdsLS4wNTUtMS41OGMuMTAyLS4wOC4yMDMtLjE2My4zMDMtLjI0OGwxLjUzOC4zNjJhLjQ2LjQ2IDAgMCAwIC41NTYtLjU1NWwtLjM2Mi0xLjUzOWMuMDg0LS4xLjE2Ny0uMi4yNDktLjMwM2wxLjU4LjA1NWEuNDYuNDYgMCAwIDAgLjQzNi0uNjU0bC0uNjU0LTEuNDM1Yy4wNjQtLjExNS4xMjYtLjIzMi4xODctLjM1bDEuNTU2LS4yNTNhLjQ2LjQ2IDAgMCAwIC4zMDEtLjcyNmwtLjkyLTEuMjhhMTcuNSAxNy41IDAgMCAwIC4xMTUtLjM4bDEuNDc2LS41NTJhLjQ2LjQ2IDAgMCAwIC4xNTMtLjc3MWwtMS4xNTUtMS4wNzdjLjAxNC0uMTMuMDI3LS4yNjEuMDM5LS4zOTJsMS4zNDMtLjgzMWEuNDYyLjQ2MiAwIDAgMCAwLS43ODZ6TTM4Ljc5IDQyLjc1MmEuOTUyLjk1MiAwIDAgMSAuMzk5LTEuODYxLjk1Mi45NTIgMCAwIDEtLjQgMS44NjF6bS0uNDU3LTMuMDg3YS44NjYuODY2IDAgMCAwLTEuMDI4LjY2NmwtLjQ3NyAyLjIyNkExMS42NDkgMTEuNjQ5IDAgMCAxIDMyIDQzLjU5N2MtMS43NiAwLTMuNDMtLjM5LTQuOTI5LTEuMDg3bC0uNDc3LTIuMjI1YS44NjYuODY2IDAgMCAwLTEuMDI4LS42NjdsLTEuOTY1LjQyMmExMS42OCAxMS42OCAwIDAgMS0xLjAxNi0xLjE5N2g5LjU2MWMuMTA4IDAgLjE4LS4wMi4xOC0uMTE4di0zLjM4MmMwLS4wOTktLjA3Mi0uMTE4LS4xOC0uMTE4SDI5LjM1VjMzLjA4aDMuMDI0Yy4yNzYgMCAxLjQ3Ni4wNzkgMS44NiAxLjYxMy4xMi40NzEuMzg0IDIuMDA2LjU2NCAyLjQ5Ny4xOC41NTEuOTEyIDEuNjUyIDEuNjkyIDEuNjUyaDQuNzY0YS45NzcuOTc3IDAgMCAwIC4xNzMtLjAxN2MtLjMzLjQ0OS0uNjkzLjg3NC0xLjA4MyAxLjI3bC0yLjAxLS40MzF6bS0xMy4yMjMgMy4wNGEuOTUyLjk1MiAwIDAgMS0uMzk5LTEuODYxLjk1Ljk1IDAgMCAxIC4zOTggMS44NjJ6bS0zLjYyNy0xNC43MDdhLjk1Ljk1IDAgMSAxLTEuNzM3Ljc3MS45NS45NSAwIDEgMSAxLjczNy0uNzcxem0tMS4xMTUgMi42NDMgMi4wNDctLjkxYS44NjguODY4IDAgMCAwIC40NC0xLjE0NWwtLjQyMS0uOTUzaDEuNjU4djcuNDc0aC0zLjM0NWExMS43MTQgMTEuNzE0IDAgMCAxLS4zOC00LjQ2NnptOC45ODMtLjcyNnYtMi4yMDNoMy45NDhjLjIwNCAwIDEuNDQuMjM2IDEuNDQgMS4xNiAwIC43NjctLjk0OCAxLjA0My0xLjcyOCAxLjA0M2gtMy42NnpNNDMuNyAzMS44OThjMCAuMjkyLS4wMTEuNTgxLS4wMzMuODY4aC0xLjJjLS4xMiAwLS4xNjguMDgtLjE2OC4xOTd2LjU1MWMwIDEuMjk4LS43MzIgMS41OC0xLjM3MyAxLjY1Mi0uNjEuMDY4LTEuMjg4LS4yNTYtMS4zNzEtLjYzLS4zNi0yLjAyNS0uOTYtMi40NTgtMS45MDgtMy4yMDYgMS4xNzYtLjc0NiAyLjQtMS44NDggMi40LTMuMzIzIDAtMS41OTMtMS4wOTItMi41OTYtMS44MzYtMy4wODgtMS4wNDQtLjY4OC0yLjItLjgyNi0yLjUxMi0uODI2SDIzLjI4NWExMS42ODQgMTEuNjg0IDAgMCAxIDYuNTQ1LTMuNjk0bDEuNDYzIDEuNTM1Yy4zMzEuMzQ2Ljg4LjM2IDEuMjI1LjAyOGwxLjYzOC0xLjU2NmExMS43MSAxMS43MSAwIDAgMSA4LjAwOSA1LjcwNGwtMS4xMjEgMi41MzJhLjg2OS44NjkgMCAwIDAgLjQ0IDEuMTQ1bDIuMTU5Ljk1OGMuMDM3LjM4My4wNTYuNzcuMDU2IDEuMTYzek0zMS4yOTQgMTkuMDkzYS45NS45NSAwIDAgMSAxLjM0NC4wMzEuOTUyLjk1MiAwIDAgMS0uMDMyIDEuMzQ2Ljk0OS45NDkgMCAwIDEtMS4zNDMtLjAzMi45NTMuOTUzIDAgMCAxIC4wMzEtMS4zNDV6bTExLjEyMyA4Ljk1MWEuOTUuOTUgMCAxIDEgMS43MzcuNzcyLjk1Ljk1IDAgMSAxLTEuNzM3LS43NzJ6Ii8+Cgo8L2c+Cgo8L3N2Zz4=;" vertex="1" parent="1">
                    <mxGeometry x="630" y="115" width="60" height="55" as="geometry"/>
                </mxCell>
            </root>
        </mxGraphModel>
    </diagram>
</mxfile>